<svg width="146" height="80" viewBox="0 0 146 80" fill="none" xmlns="http://www.w3.org/2000/svg">
<path fill-rule="evenodd" clip-rule="evenodd" d="M57.8988 12.7327V25.4659L59.8208 28.0896C61.9433 30.9873 63.175 33.162 64.5224 36.3903L65.416 38.5314L66.85 37.5764C69.9523 35.5104 71.241 35.1507 75.5758 35.1419C79.2915 35.1339 80.0645 35.2758 82.2993 36.3731C85.1263 37.7611 87.7889 40.517 89.3356 43.6551C90.7745 46.5749 90.8191 52.7327 89.4231 55.7603C85.7383 63.7521 76.0549 67.0144 68.3707 62.8527C63.5064 60.2184 61.0789 55.8394 60.5115 48.6749C60.3065 46.0879 59.8402 42.8777 59.4752 41.5409C56.9726 32.3732 49.1138 24.24 39.559 20.9296C36.4262 19.8442 35.3947 19.705 30.4995 19.7067C24.1464 19.7094 21.6288 20.3042 16.2709 23.0676C3.35164 29.7309 -3.03816 45.3485 1.553 59.042C3.28004 64.1931 5.03095 66.9569 9.25442 71.2003C12.3302 74.2902 13.7506 75.3477 16.7998 76.818C23.1176 79.8651 30.1606 80.7472 36.8509 79.3295C40.1763 78.625 47.1998 75.4414 47.5728 74.4696C47.7014 74.1338 47.0001 72.7907 46.0142 71.4853C45.0282 70.1794 43.3944 67.3325 42.3833 65.1587C41.3722 62.9849 40.4857 61.1368 40.4123 61.0515C40.3394 60.9662 39.6067 61.4099 38.7843 62.0369C36.5 63.7795 33.7287 64.616 30.2785 64.6041C26.5938 64.5917 24.0218 63.7428 21.2385 61.6202C17.0915 58.4574 15.2054 54.0797 15.5664 48.4535C16.1913 38.7206 26.322 32.3692 35.6532 35.8604C39.8723 37.4394 43.7816 41.8158 44.8205 46.1241C44.9889 46.8219 45.3062 49.4341 45.5254 51.9297C45.9921 57.2425 47.1269 60.9573 49.5279 65.0332C58.5387 80.3282 78.6781 84.6807 93.0734 74.4444C101.187 68.6751 106.069 58.9647 106.069 48.5963C106.069 43.652 110.458 37.7536 115.573 35.8251C119.192 34.4604 124.269 34.6792 127.511 36.339C129.872 37.5486 133.6 41.1945 134.107 42.7898C134.274 43.3183 134.567 43.7505 134.758 43.7505C134.949 43.7505 136.253 42.5079 137.657 40.9885C139.06 39.4696 141.495 36.9087 143.069 35.2983L145.93 32.3705L142.973 29.2364C137.113 23.0238 129.013 19.4447 120.816 19.4447C114.185 19.4447 105.87 22.6579 100.937 27.1267L98.2351 29.5736L97.1802 28.4387C95.4704 26.599 90.9 23.502 87.8618 22.1245C84.4669 20.5853 79.246 19.4447 75.5944 19.4447H72.9243V9.72234V0H65.4116H57.8988V12.7327ZM130.595 61.2216C125.757 65.4062 117.309 65.8061 112.426 62.0816C111.636 61.4788 110.9 60.9856 110.792 60.9856C110.684 60.9856 110.144 62.1947 109.591 63.6725C108.579 66.378 105.854 70.9828 104.198 72.7846C102.973 74.1183 103.346 74.7321 106.353 76.3257C110.706 78.6334 114.251 79.5968 119.369 79.8633C127.998 80.3127 134.715 77.8998 141.644 71.8614L143.411 70.3208L138.115 64.9903C135.202 62.0586 132.716 59.6673 132.591 59.6766C132.466 59.6855 131.568 60.3811 130.595 61.2216Z" fill="#172029"/>
</svg>
